<svg version="1.1" xmlns="http://www.w3.org/2000/svg" xmlns:xlink="http://www.w3.org/1999/xlink" width="780" height="417.5"><defs/><g transform="translate(0,0)"><g><rect fill="#FFFFFF" stroke="none" x="0" y="0" width="780" height="417.5"/></g><g transform="translate(0,0) matrix(1,0,0,1,44,24)"><g><g transform="translate(0,0) scale(1,0.75)"><g><path fill="#EEEEEE" stroke="none" d="M 0 0 L 100 0 Q 100 0 100 0 L 100 100 Q 100 100 100 100 L 0 100 Q 0 100 0 100 L 0 0 Q 0 0 0 0 Z"/><g transform="scale(1,1.3333333333333333)"><path fill="none" stroke="none" d="M 0 0 L 100 0 Q 100 0 100 0 L 100 75 Q 100 75 100 75 L 0 75 Q 0 75 0 75 L 0 0 Q 0 0 0 0 Z"/><path fill="none" stroke="#333333" d="M 0 0 M 0 0 L 100 0 Q 100 0 100 0 L 100 75 Q 100 75 100 75 L 0 75 Q 0 75 0 75 L 0 0 Q 0 0 0 0 Z" stroke-miterlimit="10" stroke-width="2"/></g></g><g><g transform="scale(1,1.3333333333333333)"><path fill="rgb(0,0,0)" stroke="none" d="M 2 1.5 L 2 72.75 L 97 72.75 L 97 2.25 L 3 2.25 Z" fill-opacity="0" opacity="0"/><path fill="none" stroke="#3C7626" d="M 2 1.5 M 2 1.5 L 2 5.5 M 2 5.5 M 2 7.5 L 2 11.5 M 2 11.5 M 2 13.5 L 2 17.5 M 2 17.5 M 2 19.5 L 2 23.5 M 2 23.5 M 2 25.5 L 2 29.5 M 2 29.5 M 2 31.5 L 2 35.5 M 2 35.5 M 2 37.5 L 2 41.5 M 2 41.5 M 2 43.5 L 2 47.5 M 2 47.5 M 2 49.5 L 2 53.5 M 2 53.5 M 2 55.5 L 2 59.5 M 2 59.5 M 2 61.5 L 2 65.5 M 2 65.5 M 2 67.5 L 2 71.5 M 2 71.5 M 2.75 72.75 L 6.75 72.75 M 6.75 72.75 M 8.75 72.75 L 12.75 72.75 M 12.75 72.75 M 14.75 72.75 L 18.75 72.75 M 18.75 72.75 M 20.75 72.75 L 24.75 72.75 M 24.75 72.75 M 26.75 72.75 L 30.75 72.75 M 30.75 72.75 M 32.75 72.75 L 36.75 72.75 M 36.75 72.75 M 38.75 72.75 L 42.75 72.75 M 42.75 72.75 M 44.75 72.75 L 48.75 72.75 M 48.75 72.75 M 50.75 72.75 L 54.75 72.75 M 54.75 72.75 M 56.75 72.75 L 60.75 72.75 M 60.75 72.75 M 62.75 72.75 L 66.75 72.75 M 66.75 72.75 M 68.75 72.75 L 72.75 72.75 M 72.75 72.75 M 74.75 72.75 L 78.75 72.75 M 78.75 72.75 M 80.75 72.75 L 84.75 72.75 M 84.75 72.75 M 86.75 72.75 L 90.75 72.75 M 90.75 72.75 M 92.75 72.75 L 96.75 72.75 M 96.75 72.75 M 97 71 L 97 67 M 97 67 M 97 65 L 97 61 M 97 61 M 97 59 L 97 55 M 97 55 M 97 53 L 97 49 M 97 49 M 97 47 L 97 43 M 97 43 M 97 41 L 97 37 M 97 37 M 97 35 L 97 31 M 97 31 M 97 29 L 97 25 M 97 25 M 97 23 L 97 19 M 97 19 M 97 17 L 97 13 M 97 13 M 97 11 L 97 7 M 97 7 M 97 5 L 97 2.25 L 95.75 2.25 M 95.75 2.25 M 93.75 2.25 L 89.75 2.25 M 89.75 2.25 M 87.75 2.25 L 83.75 2.25 M 83.75 2.25 M 81.75 2.25 L 77.75 2.25 M 77.75 2.25 M 75.75 2.25 L 71.75 2.25 M 71.75 2.25 M 69.75 2.25 L 65.75 2.25 M 65.75 2.25 M 63.75 2.25 L 59.75 2.25 M 59.75 2.25 M 57.75 2.25 L 53.75 2.25 M 53.75 2.25 M 51.75 2.25 L 47.75 2.25 M 47.75 2.25 M 45.75 2.25 L 41.75 2.25 M 41.75 2.25 M 39.75 2.25 L 35.75 2.25 M 35.75 2.25 M 33.75 2.25 L 29.75 2.25 M 29.75 2.25 M 27.75 2.25 L 23.75 2.25 M 23.75 2.25 M 21.75 2.25 L 17.75 2.25 M 17.75 2.25 M 15.75 2.25 L 11.75 2.25 M 11.75 2.25 M 9.75 2.25 L 5.75 2.25 M 5.75 2.25 M 3.75 2.25 L 3 2.25 Z" stroke-miterlimit="10" stroke-width="2" opacity="0"/></g></g></g></g></g><g transform="scale(1,1) matrix(1,0,0,1,46,24) translate(2,16.5)"><text fill="#000000" stroke="none" font-family="Arial" font-size="12px" font-style="normal" font-weight="normal" text-decoration="none" x="16" y="11">"I wish this </text><text fill="#000000" stroke="none" font-family="Arial" font-size="12px" font-style="normal" font-weight="normal" text-decoration="none" x="9" y="25">event offered </text><text fill="#000000" stroke="none" font-family="Arial" font-size="12px" font-style="normal" font-weight="normal" text-decoration="none" x="17.5" y="39">childcare."</text></g><g transform="translate(0,0) matrix(1,0,0,1,44,140)"><g><g transform="translate(0,0) scale(1,1)"><g><path fill="#FFFFFF" stroke="none" d="M 100 50 A 50 50 0 1 0 99.99997500000207 50.04999999166668 Z"/><g transform="scale(1,1)"><path fill="none" stroke="#666666" d="M 50 0 M 50 0 C 77.614235 0 100 22.385765000000003 100 50 C 100 77.614235 77.614235 100 50 100 C 22.385765000000003 100 0 77.614235 0 50 C 0 22.385765000000003 22.385765000000003 0 50 0 Z" stroke-miterlimit="10" stroke-width="2"/></g></g></g></g></g><g transform="scale(1,1) matrix(1,0,0,1,46,140) translate(2,36)"><text fill="#000000" stroke="none" font-family="Arial" font-size="12px" font-style="normal" font-weight="normal" text-decoration="none" x="0.5" y="11">"How would that </text><text fill="#000000" stroke="none" font-family="Arial" font-size="12px" font-style="normal" font-weight="normal" text-decoration="none" x="11" y="25">impact you?"</text></g><g transform="matrix(1,0,0,1,89.5,94.5)"><g transform="translate(0,0)"><g transform="translate(-96,-102) translate(6.5,7.5) matrix(1,0,0,1,0,0)"><g><path fill="none" stroke="#333333" d="M 94 99 L 94 112.66666666666667 L 94 126.33333333333333 L 94 140" stroke-miterlimit="10" stroke-width="2"/></g></g></g></g><g transform="translate(0,0) matrix(1,0,0,1,206,18)"><g><g transform="translate(0,0) scale(1,1)"><g><path fill="#FFFFFF" stroke="none" d="M 100 50 A 50 50 0 1 0 99.99997500000207 50.04999999166668 Z"/><g transform="scale(1,1)"><path fill="none" stroke="#666666" d="M 50 0 M 50 0 C 77.614235 0 100 22.385765000000003 100 50 C 100 77.614235 77.614235 100 50 100 C 22.385765000000003 100 0 77.614235 0 50 C 0 22.385765000000003 22.385765000000003 0 50 0 Z" stroke-miterlimit="10" stroke-width="2"/></g></g></g></g></g><g transform="scale(1,1) matrix(1,0,0,1,208,18) translate(2,36)"><text fill="#000000" stroke="none" font-family="Arial" font-size="12px" font-style="normal" font-weight="normal" text-decoration="none" x="14.5" y="11">"Your&#160;</text><text fill="#000000" stroke="none" font-family="Arial" font-size="12px" font-style="italic" font-weight="normal" text-decoration="none" x="47.5" y="11">mom</text><text fill="#000000" stroke="none" font-family="Arial" font-size="12px" font-style="normal" font-weight="normal" text-decoration="none" x="74.5" y="11"> </text><text fill="#000000" stroke="none" font-family="Arial" font-size="12px" font-style="normal" font-weight="normal" text-decoration="none" x="1" y="25">offers childcare."</text></g><g transform="translate(0,0) matrix(1,0,0,1,364,23)"><g><g transform="translate(0,0) scale(1,1)"><g><path fill="#EEEEEE" stroke="none" d="M 0 0 L 100 0 Q 100 0 100 0 L 100 100 Q 100 100 100 100 L 0 100 Q 0 100 0 100 L 0 0 Q 0 0 0 0 Z"/><g transform="scale(1,1)"><path fill="none" stroke="none" d="M 0 0 L 100 0 Q 100 0 100 0 L 100 100 Q 100 100 100 100 L 0 100 Q 0 100 0 100 L 0 0 Q 0 0 0 0 Z"/><path fill="none" stroke="#333333" d="M 0 0 M 0 0 L 100 0 Q 100 0 100 0 L 100 100 Q 100 100 100 100 L 0 100 Q 0 100 0 100 L 0 0 Q 0 0 0 0 Z" stroke-miterlimit="10" stroke-width="2"/></g></g><g><g transform="scale(1,1)"><path fill="rgb(0,0,0)" stroke="none" d="M 2 2 L 2 97 L 97 97 L 97 3 L 3 3 Z" fill-opacity="0" opacity="0"/><path fill="none" stroke="#3C7626" d="M 2 2 M 2 2 L 2 6 M 2 6 M 2 8 L 2 12 M 2 12 M 2 14 L 2 18 M 2 18 M 2 20 L 2 24 M 2 24 M 2 26 L 2 30 M 2 30 M 2 32 L 2 36 M 2 36 M 2 38 L 2 42 M 2 42 M 2 44 L 2 48 M 2 48 M 2 50 L 2 54 M 2 54 M 2 56 L 2 60 M 2 60 M 2 62 L 2 66 M 2 66 M 2 68 L 2 72 M 2 72 M 2 74 L 2 78 M 2 78 M 2 80 L 2 84 M 2 84 M 2 86 L 2 90 M 2 90 M 2 92 L 2 96 M 2 96 M 3 97 L 7 97 M 7 97 M 9 97 L 13 97 M 13 97 M 15 97 L 19 97 M 19 97 M 21 97 L 25 97 M 25 97 M 27 97 L 31 97 M 31 97 M 33 97 L 37 97 M 37 97 M 39 97 L 43 97 M 43 97 M 45 97 L 49 97 M 49 97 M 51 97 L 55 97 M 55 97 M 57 97 L 61 97 M 61 97 M 63 97 L 67 97 M 67 97 M 69 97 L 73 97 M 73 97 M 75 97 L 79 97 M 79 97 M 81 97 L 85 97 M 85 97 M 87 97 L 91 97 M 91 97 M 93 97 L 97 97 M 97 97 M 97 95 L 97 91 M 97 91 M 97 89 L 97 85 M 97 85 M 97 83 L 97 79 M 97 79 M 97 77 L 97 73 M 97 73 M 97 71 L 97 67 M 97 67 M 97 65 L 97 61 M 97 61 M 97 59 L 97 55 M 97 55 M 97 53 L 97 49 M 97 49 M 97 47 L 97 43 M 97 43 M 97 41 L 97 37 M 97 37 M 97 35 L 97 31 M 97 31 M 97 29 L 97 25 M 97 25 M 97 23 L 97 19 M 97 19 M 97 17 L 97 13 M 97 13 M 97 11 L 97 7 M 97 7 M 97 5 L 97 3 L 95 3 M 95 3 M 93 3 L 89 3 M 89 3 M 87 3 L 83 3 M 83 3 M 81 3 L 77 3 M 77 3 M 75 3 L 71 3 M 71 3 M 69 3 L 65 3 M 65 3 M 63 3 L 59 3 M 59 3 M 57 3 L 53 3 M 53 3 M 51 3 L 47 3 M 47 3 M 45 3 L 41 3 M 41 3 M 39 3 L 35 3 M 35 3 M 33 3 L 29 3 M 29 3 M 27 3 L 23 3 M 23 3 M 21 3 L 17 3 M 17 3 M 15 3 L 11 3 M 11 3 M 9 3 L 5 3 M 5 3 M 3 3 L 3 3 Z" stroke-miterlimit="10" stroke-width="2" opacity="0"/></g></g></g></g></g><g transform="scale(1,1) matrix(1,0,0,1,366,23) translate(2,29)"><text fill="#000000" stroke="none" font-family="Arial" font-size="12px" font-style="normal" font-weight="normal" text-decoration="none" x="11.5" y="11">"I was being </text><text fill="#000000" stroke="none" font-family="Arial" font-size="12px" font-style="normal" font-weight="normal" text-decoration="none" x="3.5" y="25">serious. &#160;Never </text><text fill="#000000" stroke="none" font-family="Arial" font-size="12px" font-style="normal" font-weight="normal" text-decoration="none" x="29" y="39">mind."</text></g><g transform="matrix(1,0,0,1,139.5,57)"><g transform="translate(0,0)"><g transform="translate(-146,-63) translate(6.5,6) matrix(1,0,0,1,0,0)"><g><path fill="none" stroke="#333333" d="M 144 61.5 L 175 61.5 L 175 68 L 206 68" stroke-miterlimit="10" stroke-width="2"/></g></g></g></g><g transform="matrix(1,0,0,1,301.5,63.499999999999986)"><g transform="translate(0,0)"><g transform="translate(-309,-65) translate(7.5,1.5000000000000142) matrix(1,0,0,1,0,0)"><g><path fill="none" stroke="#333333" d="M 306 68 L 325.4050394371038 68 L 344.81007887420765 67.99999999999999 L 364.21511831131147 67.99999999999999" stroke-miterlimit="10" stroke-width="2"/></g></g></g></g><g transform="translate(0,0) matrix(1,0,0,1,206,140)"><g><g transform="translate(0,0) scale(1,1)"><g><path fill="#FFFFFF" stroke="none" d="M 100 50 A 50 50 0 1 0 99.99997500000207 50.04999999166668 Z"/><g transform="scale(1,1)"><path fill="none" stroke="#666666" d="M 50 0 M 50 0 C 77.614235 0 100 22.385765000000003 100 50 C 100 77.614235 77.614235 100 50 100 C 22.385765000000003 100 0 77.614235 0 50 C 0 22.385765000000003 22.385765000000003 0 50 0 Z" stroke-miterlimit="10" stroke-width="2"/></g></g></g></g></g><g transform="scale(1,1) matrix(1,0,0,1,208,140) translate(2,29)"><text fill="#000000" stroke="none" font-family="Arial" font-size="12px" font-style="normal" font-weight="normal" text-decoration="none" x="4" y="11">"You know, the </text><text fill="#000000" stroke="none" font-family="Arial" font-size="12px" font-style="normal" font-weight="normal" text-decoration="none" x="15.5" y="25">organizers </text><text fill="#000000" stroke="none" font-family="Arial" font-size="12px" font-style="normal" font-weight="normal" text-decoration="none" x="6" y="39">aren't made of </text><text fill="#000000" stroke="none" font-family="Arial" font-size="12px" font-style="normal" font-weight="normal" text-decoration="none" x="24" y="53">money."</text></g><g transform="translate(0,0) matrix(1,0,0,1,44,280)"><g><g transform="translate(0,0) scale(1,1)"><g><path fill="#EEEEEE" stroke="none" d="M 0 0 L 100 0 Q 100 0 100 0 L 100 100 Q 100 100 100 100 L 0 100 Q 0 100 0 100 L 0 0 Q 0 0 0 0 Z"/><g transform="scale(1,1)"><path fill="none" stroke="none" d="M 0 0 L 100 0 Q 100 0 100 0 L 100 100 Q 100 100 100 100 L 0 100 Q 0 100 0 100 L 0 0 Q 0 0 0 0 Z"/><path fill="none" stroke="#333333" d="M 0 0 M 0 0 L 100 0 Q 100 0 100 0 L 100 100 Q 100 100 100 100 L 0 100 Q 0 100 0 100 L 0 0 Q 0 0 0 0 Z" stroke-miterlimit="10" stroke-width="2"/></g></g><g><g transform="scale(1,1)"><path fill="rgb(0,0,0)" stroke="none" d="M 2 2 L 2 97 L 97 97 L 97 3 L 3 3 Z" fill-opacity="0" opacity="0"/><path fill="none" stroke="#3C7626" d="M 2 2 M 2 2 L 2 6 M 2 6 M 2 8 L 2 12 M 2 12 M 2 14 L 2 18 M 2 18 M 2 20 L 2 24 M 2 24 M 2 26 L 2 30 M 2 30 M 2 32 L 2 36 M 2 36 M 2 38 L 2 42 M 2 42 M 2 44 L 2 48 M 2 48 M 2 50 L 2 54 M 2 54 M 2 56 L 2 60 M 2 60 M 2 62 L 2 66 M 2 66 M 2 68 L 2 72 M 2 72 M 2 74 L 2 78 M 2 78 M 2 80 L 2 84 M 2 84 M 2 86 L 2 90 M 2 90 M 2 92 L 2 96 M 2 96 M 3 97 L 7 97 M 7 97 M 9 97 L 13 97 M 13 97 M 15 97 L 19 97 M 19 97 M 21 97 L 25 97 M 25 97 M 27 97 L 31 97 M 31 97 M 33 97 L 37 97 M 37 97 M 39 97 L 43 97 M 43 97 M 45 97 L 49 97 M 49 97 M 51 97 L 55 97 M 55 97 M 57 97 L 61 97 M 61 97 M 63 97 L 67 97 M 67 97 M 69 97 L 73 97 M 73 97 M 75 97 L 79 97 M 79 97 M 81 97 L 85 97 M 85 97 M 87 97 L 91 97 M 91 97 M 93 97 L 97 97 M 97 97 M 97 95 L 97 91 M 97 91 M 97 89 L 97 85 M 97 85 M 97 83 L 97 79 M 97 79 M 97 77 L 97 73 M 97 73 M 97 71 L 97 67 M 97 67 M 97 65 L 97 61 M 97 61 M 97 59 L 97 55 M 97 55 M 97 53 L 97 49 M 97 49 M 97 47 L 97 43 M 97 43 M 97 41 L 97 37 M 97 37 M 97 35 L 97 31 M 97 31 M 97 29 L 97 25 M 97 25 M 97 23 L 97 19 M 97 19 M 97 17 L 97 13 M 97 13 M 97 11 L 97 7 M 97 7 M 97 5 L 97 3 L 95 3 M 95 3 M 93 3 L 89 3 M 89 3 M 87 3 L 83 3 M 83 3 M 81 3 L 77 3 M 77 3 M 75 3 L 71 3 M 71 3 M 69 3 L 65 3 M 65 3 M 63 3 L 59 3 M 59 3 M 57 3 L 53 3 M 53 3 M 51 3 L 47 3 M 47 3 M 45 3 L 41 3 M 41 3 M 39 3 L 35 3 M 35 3 M 33 3 L 29 3 M 29 3 M 27 3 L 23 3 M 23 3 M 21 3 L 17 3 M 17 3 M 15 3 L 11 3 M 11 3 M 9 3 L 5 3 M 5 3 M 3 3 L 3 3 Z" stroke-miterlimit="10" stroke-width="2" opacity="0"/></g></g></g></g></g><g transform="scale(1,1) matrix(1,0,0,1,46,280) translate(2,8)"><text fill="#000000" stroke="none" font-family="Arial" font-size="12px" font-style="normal" font-weight="normal" text-decoration="none" x="3" y="11">"Oh, tons! &#160;I'm a </text><text fill="#000000" stroke="none" font-family="Arial" font-size="12px" font-style="normal" font-weight="normal" text-decoration="none" x="7.5" y="25">single parent, </text><text fill="#000000" stroke="none" font-family="Arial" font-size="12px" font-style="normal" font-weight="normal" text-decoration="none" x="6.5" y="39">and I can only </text><text fill="#000000" stroke="none" font-family="Arial" font-size="12px" font-style="normal" font-weight="normal" text-decoration="none" x="10.5" y="53">splurge on a </text><text fill="#000000" stroke="none" font-family="Arial" font-size="12px" font-style="normal" font-weight="normal" text-decoration="none" x="5" y="67">sitter once in a </text><text fill="#000000" stroke="none" font-family="Arial" font-size="12px" font-style="normal" font-weight="normal" text-decoration="none" x="28" y="81">while."</text></g><g transform="matrix(1,0,0,1,89.5,235.5)"><g transform="translate(0,0)"><g transform="translate(-90,-241) translate(0.5,5.5) matrix(1,0,0,1,0,0)"><g><path fill="none" stroke="#333333" d="M 94 240 L 94 253.33333333333334 L 94 266.6666666666667 L 94 280" stroke-miterlimit="10" stroke-width="2"/></g></g></g></g><g transform="matrix(1,0,0,1,139.5,81.5)"><g transform="translate(0,0)"><g transform="translate(-141,-92) translate(1.5,10.5) matrix(1,0,0,1,0,0)"><g><path fill="none" stroke="#333333" d="M 144 86 L 175 86 L 175 190 L 206 190" stroke-miterlimit="10" stroke-width="2"/></g></g></g></g><g transform="translate(0,0) matrix(1,0,0,1,364,260)"><g><g transform="translate(0,0) scale(1,1)"><g><path fill="#EEEEEE" stroke="none" d="M 0 0 L 100 0 Q 100 0 100 0 L 100 100 Q 100 100 100 100 L 0 100 Q 0 100 0 100 L 0 0 Q 0 0 0 0 Z"/><g transform="scale(1,1)"><path fill="none" stroke="none" d="M 0 0 L 100 0 Q 100 0 100 0 L 100 100 Q 100 100 100 100 L 0 100 Q 0 100 0 100 L 0 0 Q 0 0 0 0 Z"/><path fill="none" stroke="#333333" d="M 0 0 M 0 0 L 100 0 Q 100 0 100 0 L 100 100 Q 100 100 100 100 L 0 100 Q 0 100 0 100 L 0 0 Q 0 0 0 0 Z" stroke-miterlimit="10" stroke-width="2"/></g></g><g><g transform="scale(1,1)"><path fill="rgb(0,0,0)" stroke="none" d="M 2 2 L 2 97 L 97 97 L 97 3 L 3 3 Z" fill-opacity="0" opacity="0"/><path fill="none" stroke="#3C7626" d="M 2 2 M 2 2 L 2 6 M 2 6 M 2 8 L 2 12 M 2 12 M 2 14 L 2 18 M 2 18 M 2 20 L 2 24 M 2 24 M 2 26 L 2 30 M 2 30 M 2 32 L 2 36 M 2 36 M 2 38 L 2 42 M 2 42 M 2 44 L 2 48 M 2 48 M 2 50 L 2 54 M 2 54 M 2 56 L 2 60 M 2 60 M 2 62 L 2 66 M 2 66 M 2 68 L 2 72 M 2 72 M 2 74 L 2 78 M 2 78 M 2 80 L 2 84 M 2 84 M 2 86 L 2 90 M 2 90 M 2 92 L 2 96 M 2 96 M 3 97 L 7 97 M 7 97 M 9 97 L 13 97 M 13 97 M 15 97 L 19 97 M 19 97 M 21 97 L 25 97 M 25 97 M 27 97 L 31 97 M 31 97 M 33 97 L 37 97 M 37 97 M 39 97 L 43 97 M 43 97 M 45 97 L 49 97 M 49 97 M 51 97 L 55 97 M 55 97 M 57 97 L 61 97 M 61 97 M 63 97 L 67 97 M 67 97 M 69 97 L 73 97 M 73 97 M 75 97 L 79 97 M 79 97 M 81 97 L 85 97 M 85 97 M 87 97 L 91 97 M 91 97 M 93 97 L 97 97 M 97 97 M 97 95 L 97 91 M 97 91 M 97 89 L 97 85 M 97 85 M 97 83 L 97 79 M 97 79 M 97 77 L 97 73 M 97 73 M 97 71 L 97 67 M 97 67 M 97 65 L 97 61 M 97 61 M 97 59 L 97 55 M 97 55 M 97 53 L 97 49 M 97 49 M 97 47 L 97 43 M 97 43 M 97 41 L 97 37 M 97 37 M 97 35 L 97 31 M 97 31 M 97 29 L 97 25 M 97 25 M 97 23 L 97 19 M 97 19 M 97 17 L 97 13 M 97 13 M 97 11 L 97 7 M 97 7 M 97 5 L 97 3 L 95 3 M 95 3 M 93 3 L 89 3 M 89 3 M 87 3 L 83 3 M 83 3 M 81 3 L 77 3 M 77 3 M 75 3 L 71 3 M 71 3 M 69 3 L 65 3 M 65 3 M 63 3 L 59 3 M 59 3 M 57 3 L 53 3 M 53 3 M 51 3 L 47 3 M 47 3 M 45 3 L 41 3 M 41 3 M 39 3 L 35 3 M 35 3 M 33 3 L 29 3 M 29 3 M 27 3 L 23 3 M 23 3 M 21 3 L 17 3 M 17 3 M 15 3 L 11 3 M 11 3 M 9 3 L 5 3 M 5 3 M 3 3 L 3 3 Z" stroke-miterlimit="10" stroke-width="2" opacity="0"/></g></g></g></g></g><g transform="scale(1,1) matrix(1,0,0,1,366,260) translate(2,8)"><text fill="#000000" stroke="none" font-family="Arial" font-size="12px" font-style="normal" font-weight="normal" text-decoration="none" x="2.5" y="11">"Maybe not, but </text><text fill="#000000" stroke="none" font-family="Arial" font-size="12px" font-style="normal" font-weight="normal" text-decoration="none" x="2.5" y="25">there's an open </text><text fill="#000000" stroke="none" font-family="Arial" font-size="12px" font-style="normal" font-weight="normal" text-decoration="none" x="8" y="39">bar. &#160;Is booze </text><text fill="#000000" stroke="none" font-family="Arial" font-size="12px" font-style="normal" font-weight="normal" text-decoration="none" x="3.5" y="53">more important </text><text fill="#000000" stroke="none" font-family="Arial" font-size="12px" font-style="normal" font-weight="normal" text-decoration="none" x="15.5" y="67">than being </text><text fill="#000000" stroke="none" font-family="Arial" font-size="12px" font-style="normal" font-weight="normal" text-decoration="none" x="16.5" y="81">inclusive?"</text></g><g transform="matrix(1,0,0,1,301.5,185.5)"><g transform="translate(0,0)"><g transform="translate(-301,-190) translate(-0.5,4.5) matrix(1,0,0,1,0,0)"><g><path fill="none" stroke="#333333" d="M 306 190 L 335 190 L 335 310 L 364 310" stroke-miterlimit="10" stroke-width="2"/></g></g></g></g><g transform="translate(0,0) matrix(1,0,0,1,364,140)"><g><g transform="translate(0,0) scale(1,1)"><g><path fill="#EEEEEE" stroke="none" d="M 0 0 L 100 0 Q 100 0 100 0 L 100 100 Q 100 100 100 100 L 0 100 Q 0 100 0 100 L 0 0 Q 0 0 0 0 Z"/><g transform="scale(1,1)"><path fill="none" stroke="none" d="M 0 0 L 100 0 Q 100 0 100 0 L 100 100 Q 100 100 100 100 L 0 100 Q 0 100 0 100 L 0 0 Q 0 0 0 0 Z"/><path fill="none" stroke="#333333" d="M 0 0 M 0 0 L 100 0 Q 100 0 100 0 L 100 100 Q 100 100 100 100 L 0 100 Q 0 100 0 100 L 0 0 Q 0 0 0 0 Z" stroke-miterlimit="10" stroke-width="2"/></g></g><g><g transform="scale(1,1)"><path fill="rgb(0,0,0)" stroke="none" d="M 2 2 L 2 97 L 97 97 L 97 3 L 3 3 Z" fill-opacity="0" opacity="0"/><path fill="none" stroke="#3C7626" d="M 2 2 M 2 2 L 2 6 M 2 6 M 2 8 L 2 12 M 2 12 M 2 14 L 2 18 M 2 18 M 2 20 L 2 24 M 2 24 M 2 26 L 2 30 M 2 30 M 2 32 L 2 36 M 2 36 M 2 38 L 2 42 M 2 42 M 2 44 L 2 48 M 2 48 M 2 50 L 2 54 M 2 54 M 2 56 L 2 60 M 2 60 M 2 62 L 2 66 M 2 66 M 2 68 L 2 72 M 2 72 M 2 74 L 2 78 M 2 78 M 2 80 L 2 84 M 2 84 M 2 86 L 2 90 M 2 90 M 2 92 L 2 96 M 2 96 M 3 97 L 7 97 M 7 97 M 9 97 L 13 97 M 13 97 M 15 97 L 19 97 M 19 97 M 21 97 L 25 97 M 25 97 M 27 97 L 31 97 M 31 97 M 33 97 L 37 97 M 37 97 M 39 97 L 43 97 M 43 97 M 45 97 L 49 97 M 49 97 M 51 97 L 55 97 M 55 97 M 57 97 L 61 97 M 61 97 M 63 97 L 67 97 M 67 97 M 69 97 L 73 97 M 73 97 M 75 97 L 79 97 M 79 97 M 81 97 L 85 97 M 85 97 M 87 97 L 91 97 M 91 97 M 93 97 L 97 97 M 97 97 M 97 95 L 97 91 M 97 91 M 97 89 L 97 85 M 97 85 M 97 83 L 97 79 M 97 79 M 97 77 L 97 73 M 97 73 M 97 71 L 97 67 M 97 67 M 97 65 L 97 61 M 97 61 M 97 59 L 97 55 M 97 55 M 97 53 L 97 49 M 97 49 M 97 47 L 97 43 M 97 43 M 97 41 L 97 37 M 97 37 M 97 35 L 97 31 M 97 31 M 97 29 L 97 25 M 97 25 M 97 23 L 97 19 M 97 19 M 97 17 L 97 13 M 97 13 M 97 11 L 97 7 M 97 7 M 97 5 L 97 3 L 95 3 M 95 3 M 93 3 L 89 3 M 89 3 M 87 3 L 83 3 M 83 3 M 81 3 L 77 3 M 77 3 M 75 3 L 71 3 M 71 3 M 69 3 L 65 3 M 65 3 M 63 3 L 59 3 M 59 3 M 57 3 L 53 3 M 53 3 M 51 3 L 47 3 M 47 3 M 45 3 L 41 3 M 41 3 M 39 3 L 35 3 M 35 3 M 33 3 L 29 3 M 29 3 M 27 3 L 23 3 M 23 3 M 21 3 L 17 3 M 17 3 M 15 3 L 11 3 M 11 3 M 9 3 L 5 3 M 5 3 M 3 3 L 3 3 Z" stroke-miterlimit="10" stroke-width="2" opacity="0"/></g></g></g></g></g><g transform="scale(1,1) matrix(1,0,0,1,366,140) translate(2,8)"><text fill="#000000" stroke="none" font-family="Arial" font-size="12px" font-style="normal" font-weight="normal" text-decoration="none" x="5" y="11">"She does, but </text><text fill="#000000" stroke="none" font-family="Arial" font-size="12px" font-style="normal" font-weight="normal" text-decoration="none" x="4" y="25">she also works </text><text fill="#000000" stroke="none" font-family="Arial" font-size="12px" font-style="normal" font-weight="normal" text-decoration="none" x="3" y="39">60 hour weeks, </text><text fill="#000000" stroke="none" font-family="Arial" font-size="12px" font-style="normal" font-weight="normal" text-decoration="none" x="4.5" y="53">so I like to give </text><text fill="#000000" stroke="none" font-family="Arial" font-size="12px" font-style="normal" font-weight="normal" text-decoration="none" x="13.5" y="67">her a break </text><text fill="#000000" stroke="none" font-family="Arial" font-size="12px" font-style="normal" font-weight="normal" text-decoration="none" x="13" y="81">sometimes."</text></g><g transform="matrix(1,0,0,1,267.5,109.5)"><g transform="translate(0,0)"><g transform="translate(-272,-114) translate(4.5,4.5) matrix(1,0,0,1,0,0)"><g><path fill="none" stroke="#333333" d="M 272 114 L 364 190" stroke-miterlimit="10" stroke-width="2"/></g></g></g></g><g transform="translate(0,0) matrix(1,0,0,1,206,280)"><g><g transform="translate(0,0) scale(1,1)"><g><path fill="#FFFFFF" stroke="none" d="M 100 50 A 50 50 0 1 0 99.99997500000207 50.04999999166668 Z"/><g transform="scale(1,1)"><path fill="none" stroke="#666666" d="M 50 0 M 50 0 C 77.614235 0 100 22.385765000000003 100 50 C 100 77.614235 77.614235 100 50 100 C 22.385765000000003 100 0 77.614235 0 50 C 0 22.385765000000003 22.385765000000003 0 50 0 Z" stroke-miterlimit="10" stroke-width="2"/></g></g></g></g></g><g transform="scale(1,1) matrix(1,0,0,1,208,280) translate(2,29)"><text fill="#000000" stroke="none" font-family="Arial" font-size="12px" font-style="normal" font-weight="normal" text-decoration="none" x="5.5" y="11">"Yeah, I guess </text><text fill="#000000" stroke="none" font-family="Arial" font-size="12px" font-style="normal" font-weight="normal" text-decoration="none" x="13.5" y="25">childcare is </text><text fill="#000000" stroke="none" font-family="Arial" font-size="12px" font-style="normal" font-weight="normal" text-decoration="none" x="14.5" y="39">expensive."</text></g><g transform="matrix(1,0,0,1,139.5,325.5)"><g transform="translate(0,0)"><g transform="translate(-144,-333) translate(4.5,7.5) matrix(1,0,0,1,0,0)"><g><path fill="none" stroke="#333333" d="M 144 330 L 199.1452627158489 330" stroke-miterlimit="10" stroke-width="2"/></g></g></g></g><g transform="matrix(1,0,0,1,139.5,325.5)"><g transform="translate(0,0)"><g transform="translate(-145,-326) translate(5.5,0.5) matrix(1,0,0,1,0,0)"><g><path fill="none" stroke="#333333" d="M 144 330 L 164.66666666666666 330 L 185.33333333333334 330 L 206 330" stroke-miterlimit="10" stroke-width="2"/></g></g></g></g><g transform="translate(0,0) matrix(1,0,0,1,530,280)"><g><g transform="translate(0,0) scale(1,1)"><g><path fill="#FFFFFF" stroke="none" d="M 100 50 A 50 50 0 1 0 99.99997500000207 50.04999999166668 Z"/><g transform="scale(1,1)"><path fill="none" stroke="#666666" d="M 50 0 M 50 0 C 77.614235 0 100 22.385765000000003 100 50 C 100 77.614235 77.614235 100 50 100 C 22.385765000000003 100 0 77.614235 0 50 C 0 22.385765000000003 22.385765000000003 0 50 0 Z" stroke-miterlimit="10" stroke-width="2"/></g></g></g></g></g><g transform="scale(1,1) matrix(1,0,0,1,532,280) translate(2,15)"><text fill="#000000" stroke="none" font-family="Arial" font-size="12px" font-style="normal" font-weight="normal" text-decoration="none" x="6" y="11">"I wonder how </text><text fill="#000000" stroke="none" font-family="Arial" font-size="12px" font-style="normal" font-weight="normal" text-decoration="none" x="7" y="25">much it would </text><text fill="#000000" stroke="none" font-family="Arial" font-size="12px" font-style="normal" font-weight="normal" text-decoration="none" x="12" y="39">cost them to </text><text fill="#000000" stroke="none" font-family="Arial" font-size="12px" font-style="normal" font-weight="normal" text-decoration="none" x="24" y="53">provide </text><text fill="#000000" stroke="none" font-family="Arial" font-size="12px" font-style="normal" font-weight="normal" text-decoration="none" x="17.5" y="67">childcare."</text></g><g transform="matrix(1,0,0,1,301.5,325.5)"><g transform="translate(0,0)"><g transform="translate(-311,-330) translate(9.5,4.5) matrix(1,0,0,1,0,0)"><g><path fill="none" stroke="#333333" d="M 306 330 L 331 330 L 331 393 L 580 393 L 580 380" stroke-miterlimit="10" stroke-width="2"/></g></g></g></g><g transform="matrix(1,0,0,1,459.5,305.5)"><g transform="translate(0,0)"><g transform="translate(-461,-310) translate(1.5,4.5) matrix(1,0,0,1,0,0)"><g><path fill="none" stroke="#333333" d="M 464 310 L 497 310 L 497 330 L 530 330" stroke-miterlimit="10" stroke-width="2"/></g></g></g></g><g transform="translate(0,0) matrix(1,0,0,1,530,140)"><g><g transform="translate(0,0) scale(1,1)"><g><path fill="#FFFFFF" stroke="none" d="M 100 50 A 50 50 0 1 0 99.99997500000207 50.04999999166668 Z"/><g transform="scale(1,1)"><path fill="none" stroke="#666666" d="M 50 0 M 50 0 C 77.614235 0 100 22.385765000000003 100 50 C 100 77.614235 77.614235 100 50 100 C 22.385765000000003 100 0 77.614235 0 50 C 0 22.385765000000003 22.385765000000003 0 50 0 Z" stroke-miterlimit="10" stroke-width="2"/></g></g></g></g></g><g transform="scale(1,1) matrix(1,0,0,1,532,140) translate(2,29)"><text fill="#000000" stroke="none" font-family="Arial" font-size="12px" font-style="normal" font-weight="normal" text-decoration="none" x="8" y="11">"More people </text><text fill="#000000" stroke="none" font-family="Arial" font-size="12px" font-style="normal" font-weight="normal" text-decoration="none" x="13" y="25">want booze </text><text fill="#000000" stroke="none" font-family="Arial" font-size="12px" font-style="normal" font-weight="normal" text-decoration="none" x="18" y="39">than want </text><text fill="#000000" stroke="none" font-family="Arial" font-size="12px" font-style="normal" font-weight="normal" text-decoration="none" x="17.5" y="53">childcare."</text></g><g transform="matrix(1,0,0,1,459.5,185.5)"><g transform="translate(0,0)"><g transform="translate(-463,-280) translate(3.5,94.5) matrix(1,0,0,1,0,0)"><g><path fill="none" stroke="#333333" d="M 464 280 L 497 280 L 497 190 L 530 190" stroke-miterlimit="10" stroke-width="2"/></g></g></g></g><g transform="translate(0,0) matrix(1,0,0,1,527,22)"><g><g transform="translate(0,0) scale(1,1)"><g><path fill="#EEEEEE" stroke="none" d="M 0 0 L 100 0 Q 100 0 100 0 L 100 100 Q 100 100 100 100 L 0 100 Q 0 100 0 100 L 0 0 Q 0 0 0 0 Z"/><g transform="scale(1,1)"><path fill="none" stroke="none" d="M 0 0 L 100 0 Q 100 0 100 0 L 100 100 Q 100 100 100 100 L 0 100 Q 0 100 0 100 L 0 0 Q 0 0 0 0 Z"/><path fill="none" stroke="#333333" d="M 0 0 M 0 0 L 100 0 Q 100 0 100 0 L 100 100 Q 100 100 100 100 L 0 100 Q 0 100 0 100 L 0 0 Q 0 0 0 0 Z" stroke-miterlimit="10" stroke-width="2"/></g></g><g><g transform="scale(1,1)"><path fill="rgb(0,0,0)" stroke="none" d="M 2 2 L 2 97 L 97 97 L 97 3 L 3 3 Z" fill-opacity="0" opacity="0"/><path fill="none" stroke="#3C7626" d="M 2 2 M 2 2 L 2 6 M 2 6 M 2 8 L 2 12 M 2 12 M 2 14 L 2 18 M 2 18 M 2 20 L 2 24 M 2 24 M 2 26 L 2 30 M 2 30 M 2 32 L 2 36 M 2 36 M 2 38 L 2 42 M 2 42 M 2 44 L 2 48 M 2 48 M 2 50 L 2 54 M 2 54 M 2 56 L 2 60 M 2 60 M 2 62 L 2 66 M 2 66 M 2 68 L 2 72 M 2 72 M 2 74 L 2 78 M 2 78 M 2 80 L 2 84 M 2 84 M 2 86 L 2 90 M 2 90 M 2 92 L 2 96 M 2 96 M 3 97 L 7 97 M 7 97 M 9 97 L 13 97 M 13 97 M 15 97 L 19 97 M 19 97 M 21 97 L 25 97 M 25 97 M 27 97 L 31 97 M 31 97 M 33 97 L 37 97 M 37 97 M 39 97 L 43 97 M 43 97 M 45 97 L 49 97 M 49 97 M 51 97 L 55 97 M 55 97 M 57 97 L 61 97 M 61 97 M 63 97 L 67 97 M 67 97 M 69 97 L 73 97 M 73 97 M 75 97 L 79 97 M 79 97 M 81 97 L 85 97 M 85 97 M 87 97 L 91 97 M 91 97 M 93 97 L 97 97 M 97 97 M 97 95 L 97 91 M 97 91 M 97 89 L 97 85 M 97 85 M 97 83 L 97 79 M 97 79 M 97 77 L 97 73 M 97 73 M 97 71 L 97 67 M 97 67 M 97 65 L 97 61 M 97 61 M 97 59 L 97 55 M 97 55 M 97 53 L 97 49 M 97 49 M 97 47 L 97 43 M 97 43 M 97 41 L 97 37 M 97 37 M 97 35 L 97 31 M 97 31 M 97 29 L 97 25 M 97 25 M 97 23 L 97 19 M 97 19 M 97 17 L 97 13 M 97 13 M 97 11 L 97 7 M 97 7 M 97 5 L 97 3 L 95 3 M 95 3 M 93 3 L 89 3 M 89 3 M 87 3 L 83 3 M 83 3 M 81 3 L 77 3 M 77 3 M 75 3 L 71 3 M 71 3 M 69 3 L 65 3 M 65 3 M 63 3 L 59 3 M 59 3 M 57 3 L 53 3 M 53 3 M 51 3 L 47 3 M 47 3 M 45 3 L 41 3 M 41 3 M 39 3 L 35 3 M 35 3 M 33 3 L 29 3 M 29 3 M 27 3 L 23 3 M 23 3 M 21 3 L 17 3 M 17 3 M 15 3 L 11 3 M 11 3 M 9 3 L 5 3 M 5 3 M 3 3 L 3 3 Z" stroke-miterlimit="10" stroke-width="2" opacity="0"/></g></g></g></g></g><g transform="scale(1,1) matrix(1,0,0,1,529,22) translate(2,15)"><text fill="#000000" stroke="none" font-family="Arial" font-size="12px" font-style="normal" font-weight="normal" text-decoration="none" x="4" y="11">"No one needs </text><text fill="#000000" stroke="none" font-family="Arial" font-size="12px" font-style="normal" font-weight="normal" text-decoration="none" x="18" y="25">alcohol to </text><text fill="#000000" stroke="none" font-family="Arial" font-size="12px" font-style="normal" font-weight="normal" text-decoration="none" x="8.5" y="39">attend. Some </text><text fill="#000000" stroke="none" font-family="Arial" font-size="12px" font-style="normal" font-weight="normal" text-decoration="none" x="11.5" y="53">people can't </text><text fill="#000000" stroke="none" font-family="Arial" font-size="12px" font-style="normal" font-weight="normal" text-decoration="none" x="2.5" y="67">attend due to it."</text></g><g transform="matrix(1,0,0,1,572.5,117.5)"><g transform="translate(0,0)"><g transform="translate(-578,-142) translate(5.5,24.5) matrix(1,0,0,1,0,0)"><g><path fill="none" stroke="#333333" d="M 577 140.24828759089465 L 577 134.16552506059642 L 577 128.08276253029823 L 577 122" stroke-miterlimit="10" stroke-width="2"/></g></g></g></g><g transform="translate(0,0) matrix(1,0,0,1,660,280)"><g><g transform="translate(0,0) scale(1,1)"><g><path fill="#EEEEEE" stroke="none" d="M 0 0 L 100 0 Q 100 0 100 0 L 100 100 Q 100 100 100 100 L 0 100 Q 0 100 0 100 L 0 0 Q 0 0 0 0 Z"/><g transform="scale(1,1)"><path fill="none" stroke="none" d="M 0 0 L 100 0 Q 100 0 100 0 L 100 100 Q 100 100 100 100 L 0 100 Q 0 100 0 100 L 0 0 Q 0 0 0 0 Z"/><path fill="none" stroke="#333333" d="M 0 0 M 0 0 L 100 0 Q 100 0 100 0 L 100 100 Q 100 100 100 100 L 0 100 Q 0 100 0 100 L 0 0 Q 0 0 0 0 Z" stroke-miterlimit="10" stroke-width="2"/></g></g><g><g transform="scale(1,1)"><path fill="rgb(0,0,0)" stroke="none" d="M 2 2 L 2 97 L 97 97 L 97 3 L 3 3 Z" fill-opacity="0" opacity="0"/><path fill="none" stroke="#3C7626" d="M 2 2 M 2 2 L 2 6 M 2 6 M 2 8 L 2 12 M 2 12 M 2 14 L 2 18 M 2 18 M 2 20 L 2 24 M 2 24 M 2 26 L 2 30 M 2 30 M 2 32 L 2 36 M 2 36 M 2 38 L 2 42 M 2 42 M 2 44 L 2 48 M 2 48 M 2 50 L 2 54 M 2 54 M 2 56 L 2 60 M 2 60 M 2 62 L 2 66 M 2 66 M 2 68 L 2 72 M 2 72 M 2 74 L 2 78 M 2 78 M 2 80 L 2 84 M 2 84 M 2 86 L 2 90 M 2 90 M 2 92 L 2 96 M 2 96 M 3 97 L 7 97 M 7 97 M 9 97 L 13 97 M 13 97 M 15 97 L 19 97 M 19 97 M 21 97 L 25 97 M 25 97 M 27 97 L 31 97 M 31 97 M 33 97 L 37 97 M 37 97 M 39 97 L 43 97 M 43 97 M 45 97 L 49 97 M 49 97 M 51 97 L 55 97 M 55 97 M 57 97 L 61 97 M 61 97 M 63 97 L 67 97 M 67 97 M 69 97 L 73 97 M 73 97 M 75 97 L 79 97 M 79 97 M 81 97 L 85 97 M 85 97 M 87 97 L 91 97 M 91 97 M 93 97 L 97 97 M 97 97 M 97 95 L 97 91 M 97 91 M 97 89 L 97 85 M 97 85 M 97 83 L 97 79 M 97 79 M 97 77 L 97 73 M 97 73 M 97 71 L 97 67 M 97 67 M 97 65 L 97 61 M 97 61 M 97 59 L 97 55 M 97 55 M 97 53 L 97 49 M 97 49 M 97 47 L 97 43 M 97 43 M 97 41 L 97 37 M 97 37 M 97 35 L 97 31 M 97 31 M 97 29 L 97 25 M 97 25 M 97 23 L 97 19 M 97 19 M 97 17 L 97 13 M 97 13 M 97 11 L 97 7 M 97 7 M 97 5 L 97 3 L 95 3 M 95 3 M 93 3 L 89 3 M 89 3 M 87 3 L 83 3 M 83 3 M 81 3 L 77 3 M 77 3 M 75 3 L 71 3 M 71 3 M 69 3 L 65 3 M 65 3 M 63 3 L 59 3 M 59 3 M 57 3 L 53 3 M 53 3 M 51 3 L 47 3 M 47 3 M 45 3 L 41 3 M 41 3 M 39 3 L 35 3 M 35 3 M 33 3 L 29 3 M 29 3 M 27 3 L 23 3 M 23 3 M 21 3 L 17 3 M 17 3 M 15 3 L 11 3 M 11 3 M 9 3 L 5 3 M 5 3 M 3 3 L 3 3 Z" stroke-miterlimit="10" stroke-width="2" opacity="0"/></g></g></g></g></g><g transform="scale(1,1) matrix(1,0,0,1,662,280) translate(2,22)"><text fill="#000000" stroke="none" font-family="Arial" font-size="12px" font-style="normal" font-weight="normal" text-decoration="none" x="4.5" y="11">"I know people </text><text fill="#000000" stroke="none" font-family="Arial" font-size="12px" font-style="normal" font-weight="normal" text-decoration="none" x="25.5" y="25">who've </text><text fill="#000000" stroke="none" font-family="Arial" font-size="12px" font-style="normal" font-weight="normal" text-decoration="none" x="19.5" y="39">arranged </text><text fill="#000000" stroke="none" font-family="Arial" font-size="12px" font-style="normal" font-weight="normal" text-decoration="none" x="13" y="53">childcare at </text><text fill="#000000" stroke="none" font-family="Arial" font-size="12px" font-style="normal" font-weight="normal" text-decoration="none" x="11" y="67">their events."</text></g><g transform="matrix(1,0,0,1,625.5,325.5)"><g transform="translate(0,0)"><g transform="translate(-624,-329) translate(-1.5,3.5) matrix(1,0,0,1,0,0)"><g><path fill="none" stroke="#333333" d="M 630 330 L 640 330 L 650 330 L 660 330" stroke-miterlimit="10" stroke-width="2"/></g></g></g></g><g transform="translate(0,0) matrix(1,0,0,1,660,140)"><g><g transform="translate(0,0) scale(1,1)"><g><path fill="#FFFFFF" stroke="none" d="M 100 50 A 50 50 0 1 0 99.99997500000207 50.04999999166668 Z"/><g transform="scale(1,1)"><path fill="none" stroke="#666666" d="M 50 0 M 50 0 C 77.614235 0 100 22.385765000000003 100 50 C 100 77.614235 77.614235 100 50 100 C 22.385765000000003 100 0 77.614235 0 50 C 0 22.385765000000003 22.385765000000003 0 50 0 Z" stroke-miterlimit="10" stroke-width="2"/></g></g></g></g></g><g transform="scale(1,1) matrix(1,0,0,1,662,140) translate(2,15)"><text fill="#000000" stroke="none" font-family="Arial" font-size="12px" font-style="normal" font-weight="normal" text-decoration="none" x="19" y="11">"Let's ask </text><text fill="#000000" stroke="none" font-family="Arial" font-size="12px" font-style="normal" font-weight="normal" text-decoration="none" x="11.5" y="25">them to give </text><text fill="#000000" stroke="none" font-family="Arial" font-size="12px" font-style="normal" font-weight="normal" text-decoration="none" x="9" y="39">advice to this </text><text fill="#000000" stroke="none" font-family="Arial" font-size="12px" font-style="normal" font-weight="normal" text-decoration="none" x="25.5" y="53">event's </text><text fill="#000000" stroke="none" font-family="Arial" font-size="12px" font-style="normal" font-weight="normal" text-decoration="none" x="13.5" y="67">organizers."</text></g><g transform="matrix(1,0,0,1,705.5,235.5)"><g transform="translate(0,0)"><g transform="translate(-710,-242) translate(4.5,6.5) matrix(1,0,0,1,0,0)"><g><path fill="none" stroke="#333333" d="M 710 240 L 710 253.33333333333334 L 710 266.6666666666667 L 710 280" stroke-miterlimit="10" stroke-width="2"/></g></g></g></g><g transform="translate(0,0) matrix(1,0,0,1,656,24)"><g><g transform="translate(0,0) scale(1,1)"><g><path fill="#FFFFFF" stroke="none" d="M 100 50 A 50 50 0 1 0 99.99997500000207 50.04999999166668 Z"/><g transform="scale(1,1)"><path fill="none" stroke="#666666" d="M 50 0 M 50 0 C 77.614235 0 100 22.385765000000003 100 50 C 100 77.614235 77.614235 100 50 100 C 22.385765000000003 100 0 77.614235 0 50 C 0 22.385765000000003 22.385765000000003 0 50 0 Z" stroke-miterlimit="10" stroke-width="2"/></g></g></g></g></g><g transform="scale(1,1) matrix(1,0,0,1,658,24) translate(2,36)"><text fill="#000000" stroke="none" font-family="Arial" font-size="12px" font-style="normal" font-weight="normal" text-decoration="none" x="11.5" y="11">"I guess you </text><text fill="#000000" stroke="none" font-family="Arial" font-size="12px" font-style="normal" font-weight="normal" text-decoration="none" x="9" y="25">have a point."</text></g><g transform="matrix(1,0,0,1,622.5,67.5)"><g transform="translate(0,0)"><g transform="translate(-626,-71) translate(3.5,3.5) matrix(1,0,0,1,0,0)"><g><path fill="none" stroke="#333333" d="M 627 72 L 636.6896279024991 72 L 646.3792558049981 72 L 656.0688837074972 72" stroke-miterlimit="10" stroke-width="2"/></g></g></g></g><g transform="matrix(1,0,0,1,139.5,57)"><g transform="translate(0,0)"><g transform="translate(-145,-62) translate(5.5,5) matrix(1,0,0,1,0,0)"><g><path fill="none" stroke="#333333" d="M 144 61.5 L 175 61.5 L 175 68 L 206 68" stroke-miterlimit="10" stroke-width="2"/></g></g></g></g></g></svg>